<?xml version="1.0" encoding="utf-8"?>
<!-- Generator: Adobe Illustrator 22.1.0, SVG Export Plug-In . SVG Version: 6.00 Build 0)  -->
<svg version="1.1" id="Layer_1" xmlns="http://www.w3.org/2000/svg" xmlns:xlink="http://www.w3.org/1999/xlink" x="0px" y="0px"
	 viewBox="0 0 552.2 124.2" style="enable-background:new 0 0 552.2 124.2;" xml:space="preserve">
<style type="text/css">
	.st0{fill:#FFFFFF;}
</style>
<title>mindgov-logo</title>
<g id="Layer_2_1_">
	<g id="Layer_1-2">
		<path class="st0" d="M52,116.6c-4.7,0.1-9.4-1.2-13.5-3.6c0.1,6.2,6.2,11.2,13.6,11.2s13.5-5,13.6-11.2c-4.1,2.4-8.7,3.7-13.5,3.6
			L52,116.6z"/>
		<path class="st0" d="M98.4,53.5c3.1,0,5.6-2.5,5.7-5.6c0,0,0,0,0,0C104.1,26.1,82.7,0,52.2,0C23.4,0,0,23.4,0.1,52.3
			c0,20.6,12.2,39.3,31.1,47.7c0.4,6,9.3,10.8,20.2,10.8h1.5c10.7,0,19.6-4.7,20.2-10.6c9.3-3.8,17.3-10.3,23-18.5
			c4.6-7.2,6.2-14.6,3.2-19.9c-1.6-2.7-4.5-4.3-7.7-4.1H79.3c-1.7,0-3.2-6.5-4-9.4c-0.7-3.1-1.7-6.1-2.8-9c-1.8-4.1-4.3-6.2-7.4-6.2
			s-5.6,2.1-7.4,6.2c-1.2,2.9-2.1,5.9-2.8,9c-0.6,2.4-2.1,7.6-2.6,8.4c-0.6-0.8-2-6-2.6-8.4c-0.7-3.1-1.7-6.1-2.8-9
			c-1.8-4.1-4.3-6.2-7.4-6.2s-5.6,2.1-7.4,6.2c-1.2,2.9-2.1,5.9-2.8,9c-0.8,2.8-2.1,8-3.2,9.4c-2.1,0.3-3.6,2.4-3.3,4.5
			c0.3,1.9,1.9,3.3,3.9,3.3c3.1,0,5.6-2.1,7.4-6.2c1.2-2.9,2.1-5.9,2.8-9c0.6-2.4,2.1-7.7,2.6-8.4c0.6,0.9,2,6,2.6,8.4
			c0.7,3.1,1.7,6.1,2.8,9c1.8,4.1,4.3,6.2,7.4,6.2s5.6-2.1,7.4-6.2c1.2-2.9,2.1-5.9,2.8-9C63,48,64.6,42.6,65,42
			c0.5,0.7,2,6,2.6,8.4c0.7,3.1,1.7,6.1,2.8,9c1.8,4.1,4.3,6.2,7.4,6.2H88c2.8,0,4.1,1.6,3.2,3.8c-4.4,10.3-12.9,18.3-23.5,22.1
			c-0.4,6.4-4.8,10.7-15.6,10.7s-15.3-4.4-15.6-10.8c-8.6-3.2-15.7-9.4-20.1-17.4c-6.8-12.7-4.1-20-4.7-22.3
			c-0.9-2.8-0.9-5.8-0.1-8.6c1.4-5.4,4.9-9.3,8-9c-3.5-2.5-1.9-8.3,2.1-12.2c3.7-3.6,8.6-4.8,11.2-2.8c-1.9-4,2.5-8.1,8-9.4
			s10.5,0.4,11.3,3.8C53,10,58,8.3,63.5,9.7s9.9,5.6,8,9.4c2.6-2,7.5-0.9,11.2,2.8c4,3.9,5.6,9.7,2.1,12.2c3.1-0.4,6.5,3.1,7.8,8
			c0.4,1.9,0.5,3.8,0.4,5.7C92.8,50.9,95.3,53.4,98.4,53.5C98.4,53.5,98.4,53.5,98.4,53.5z"/>
		<path class="st0" d="M188,37.5c8.3,0,12.7,4.4,12.7,12.7v39c0,0.5,12.8,0.5,12.8,0V49.7c0-15.8-7.9-23.8-23.4-23.8
			c-7.3-0.1-14.6,1.2-21.4,4l-0.4,0.1l-0.3-0.2c-3.6-2.6-8.5-3.9-14.9-3.9c-7.6-0.2-15.1,1.2-22.2,4.1c-3.5,1.5-4.3,2.7-4.3,6.3
			v52.8c0,0.5,12.8,0.5,12.8,0v-48c-0.1-1,0.5-1.9,1.5-2.2c3.3-1.1,6.7-1.6,10.1-1.5c8.4,0,12.8,4.4,12.8,12.7v39
			c0,0.5,12.8,0.5,12.8,0V49.7c0.1-3.1-0.3-6.1-1.3-9l-0.3-0.7l0.7-0.3C179.7,38.3,183.8,37.5,188,37.5z"/>
		<path class="st0" d="M223.9,27.6v61.6c0,0.5,12.8,0.5,12.8,0V27.6C236.7,27.1,223.9,27.1,223.9,27.6z"/>
		<path class="st0" d="M273.5,37.5c9.4,0,14.2,4.3,14.2,12.8v38.9c0,0.5,12.8,0.5,12.8,0V50c0-16-8.4-24-24.9-24
			c-9.2,0-17,1.4-24,4.1c-3.6,1.5-4.3,2.6-4.3,6.3v52.7c0,0.5,12.8,0.5,12.8,0V41.1c0-0.9,0.5-1.6,1.3-1.9
			C265.3,38,269.4,37.5,273.5,37.5z"/>
		<path class="st0" d="M333.8,25.9c-16.4,0-25,8.7-25,25v16.9c0,16,8.8,24.2,26,24.2c10.9,0,17.7-2,22.8-3.9
			c3.8-1.5,4.5-2.4,4.5-6.1V4.6c0-0.5-12.8-0.5-12.8,0v23.1l-1.4-0.2C343.2,26.5,338.5,26,333.8,25.9z M336.2,80.4
			c-9.4,0-14.6-4.7-14.6-13.1v-16c0-9.3,4.9-13.8,14.9-13.8c3.9,0.1,7.8,0.5,11.6,1.5l1.1,0.2V77c0.1,0.9-0.5,1.8-1.4,2
			C344,80,340.1,80.5,336.2,80.4L336.2,80.4z"/>
		<path class="st0" d="M372.6,107.6c4.6,7.8,12.8,11.5,24.9,11.5c17.5,0,26.4-8.8,26.4-26.1V35.8c0-3.7-0.5-4.4-4.1-6.1
			c-4-1.8-11.8-3.8-22-3.8c-18,0-27.1,8.5-27.1,25.2V65c0,15.9,8.4,24,24.9,24c4.9-0.1,9.9-0.8,14.6-2.2l0.9-0.2v7.1
			c0,9.2-4.8,14.1-13.8,14.1c-6.5,0-10.5-2-13.5-6.6C383.4,100.4,372.1,106.8,372.6,107.6z M397.6,77.5c-9.1,0-14.2-4.6-14.2-12.8
			V51.6c0-9.5,5-14.1,15.3-14.1c3.6,0,7.2,0.5,10.7,1.4h0.1c1,0.2,1.7,1.2,1.6,2.2v34.5l-0.6,0.1C406.2,76.8,401.9,77.4,397.6,77.5
			L397.6,77.5z"/>
		<path class="st0" d="M459.3,25.9c18.2,0,28,9.2,28,24.2V68c0,15-9.8,24.2-28,24.2c-17.9,0-27.9-9.2-27.9-24.2V50.1
			C431.4,35.1,441.3,25.9,459.3,25.9z M459.3,38.6c-8.9,0-13.8,4.1-13.8,11.5V68c0,7.3,5,11.5,13.8,11.5s13.9-4.2,13.9-11.5V50.1
			C473.2,42.7,468.2,38.6,459.3,38.6z"/>
		<path class="st0" d="M524.2,60.9c-2.1,5.8-3.3,12.1-3.6,12.6H520c-1-4.4-2.3-8.7-3.8-13l-13.1-32.8c-0.5-0.8-15-0.7-14.7,0
			l24.8,59.5c1,2.7,2.3,3.4,5.1,3.4h4c2.8,0,4-0.7,5.1-3.4l24.8-59.5c0.3-0.5-14.9-0.5-15.1,0L524.2,60.9z"/>
	</g>
</g>
</svg>
